<?xml version="1.0" standalone="no"?>
<!DOCTYPE svg PUBLIC "-//W3C//DTD SVG 20010904//EN"
 "http://www.w3.org/TR/2001/REC-SVG-20010904/DTD/svg10.dtd">
<svg version="1.0" xmlns="http://www.w3.org/2000/svg"
 width="160.000000pt" height="160.000000pt" viewBox="0 0 160.000000 160.000000"
 preserveAspectRatio="xMidYMid meet">
<metadata>
Created by potrace 1.14, written by Peter Selinger 2001-2017
</metadata>
<g transform="translate(0.000000,160.000000) scale(0.100000,-0.100000)"
fill="#000000" stroke="none">
<path d="M747 1444 c-1 -1 -22 -4 -47 -5 -174 -12 -390 -170 -477 -349 -53
-109 -66 -171 -66 -295 1 -108 11 -156 50 -250 68 -161 218 -297 393 -356 54
-18 88 -22 195 -22 114 0 139 3 202 25 206 73 354 224 426 435 8 24 10 40 5
37 -6 -4 -2 6 8 22 12 17 14 25 6 20 -11 -7 -12 -4 -3 13 9 16 9 21 -1 21 -10
0 -10 2 -1 8 7 4 12 32 12 65 0 37 -5 57 -12 57 -8 0 -7 3 2 9 8 5 10 14 5 22
-4 8 -9 21 -9 29 -4 44 -6 51 -14 46 -5 -4 -7 4 -3 16 3 13 1 19 -5 15 -7 -5
-9 0 -6 13 3 12 0 20 -6 20 -7 0 -10 3 -8 8 7 10 -49 113 -57 105 -3 -3 -6 1
-6 9 0 24 -115 135 -189 183 -66 42 -154 78 -221 90 -34 6 -169 13 -173 9z"/>
</g>
</svg>
